<svg width="24" height="24" viewBox="0 0 24 24" fill="none" xmlns="http://www.w3.org/2000/svg">
<path fill-rule="evenodd" clip-rule="evenodd" d="M5.99998 3.05176e-05C2.68628 3.05176e-05 -1.52588e-05 2.68632 -1.52588e-05 6.00003V18C-1.52588e-05 21.3137 2.68628 24 5.99998 24H18C21.3137 24 24 21.3137 24 18V6.00003C24 2.68632 21.3137 3.05176e-05 18 3.05176e-05H5.99998ZM18.5606 9.06069C19.1464 8.4749 19.1464 7.52516 18.5606 6.93937C17.9749 6.35358 17.0251 6.35358 16.4393 6.93937L9.83332 13.5454L7.06065 10.7727C6.47486 10.1869 5.52511 10.1869 4.93932 10.7727C4.35354 11.3585 4.35354 12.3082 4.93932 12.894L8.77266 16.7274C9.35844 17.3131 10.3082 17.3131 10.894 16.7274L18.5606 9.06069Z" fill="#5C9DFE"/>
</svg>
