<svg width="30" height="30" viewBox="0 0 30 30" fill="none" xmlns="http://www.w3.org/2000/svg">
<g clip-path="url(#clip0_7_60)">
<path fill-rule="evenodd" clip-rule="evenodd" d="M8.99998 3.00003C5.68628 3.00003 2.99998 5.68632 2.99998 9.00003V21C2.99998 24.3137 5.68628 27 8.99998 27H21C24.3137 27 27 24.3137 27 21V9.00003C27 5.68632 24.3137 3.00003 21 3.00003H8.99998ZM21.5606 12.0607C22.1464 11.4749 22.1464 10.5252 21.5606 9.93937C20.9749 9.35358 20.0251 9.35358 19.4393 9.93937L12.8333 16.5454L10.0606 13.7727C9.47486 13.1869 8.52511 13.1869 7.93932 13.7727C7.35354 14.3585 7.35354 15.3082 7.93932 15.894L11.7727 19.7274C12.3584 20.3131 13.3082 20.3131 13.894 19.7274L21.5606 12.0607Z" fill="#5C9DFE"/>
</g>
<rect x="1.49998" y="1.50003" width="27" height="27" rx="7.5" stroke="#015ADF" stroke-width="3"/>
<defs>
<clipPath id="clip0_7_60">
<rect x="2.99998" y="3.00003" width="24" height="24" rx="6" fill="white"/>
</clipPath>
</defs>
</svg>
